<svg width="63" height="53" viewBox="0 0 63 53" fill="none" xmlns="http://www.w3.org/2000/svg">
<path d="M57.3333 0.408203H5.66667C2.81424 0.408203 0.5 2.90115 0.5 5.97385V46.7886C0.5 49.8613 2.81424 52.3542 5.66667 52.3542H57.3333C60.1858 52.3542 62.5 49.8613 62.5 46.7886V5.97385C62.5 2.90115 60.1858 0.408203 57.3333 0.408203ZM57.3333 46.7886H5.66667V5.97385H57.3333V46.7886ZM22.8889 26.3812C26.6885 26.3812 29.7778 23.0534 29.7778 18.9604C29.7778 14.8673 26.6885 11.5395 22.8889 11.5395C19.0892 11.5395 16 14.8673 16 18.9604C16 23.0534 19.0892 26.3812 22.8889 26.3812ZM13.2444 41.2229H32.5333C33.8681 41.2229 34.9444 40.2258 34.9444 38.9967V36.7704C34.9444 33.0832 31.7045 30.0917 27.7111 30.0917C26.5486 30.0917 25.6983 31.0193 22.8889 31.0193C19.9934 31.0193 19.2937 30.0917 18.0667 30.0917C14.0733 30.0917 10.8333 33.0832 10.8333 36.7704V38.9967C10.8333 40.2258 11.9097 41.2229 13.2444 41.2229ZM39.25 33.8021H51.3056C51.7792 33.8021 52.1667 33.3847 52.1667 32.8745V31.0193C52.1667 30.5091 51.7792 30.0917 51.3056 30.0917H39.25C38.7764 30.0917 38.3889 30.5091 38.3889 31.0193V32.8745C38.3889 33.3847 38.7764 33.8021 39.25 33.8021ZM39.25 26.3812H51.3056C51.7792 26.3812 52.1667 25.9638 52.1667 25.4536V23.5984C52.1667 23.0882 51.7792 22.6708 51.3056 22.6708H39.25C38.7764 22.6708 38.3889 23.0882 38.3889 23.5984V25.4536C38.3889 25.9638 38.7764 26.3812 39.25 26.3812ZM39.25 18.9604H51.3056C51.7792 18.9604 52.1667 18.5429 52.1667 18.0328V16.1775C52.1667 15.6674 51.7792 15.2499 51.3056 15.2499H39.25C38.7764 15.2499 38.3889 15.6674 38.3889 16.1775V18.0328C38.3889 18.5429 38.7764 18.9604 39.25 18.9604Z" fill="black"/>
</svg>
